<svg width="76" height="75" viewBox="0 0 76 75" fill="none" xmlns="http://www.w3.org/2000/svg">
    <g opacity="0.6">
        <path d="M34.7302 17.725L10.2052 38.425L10.5802 46.3L32.1052 67.9L39.3052 47.425L64.0552 34.15L66.5302 26.8L64.7302 23.575L59.7052 21.925L54.6802 20.125L49.0552 14.8L45.9052 15.35L38.3802 19.075L34.7302 17.725Z" fill="#A3E86E"/>
        <path d="M10.2052 38.025C10.2052 38.025 18.9802 30.675 18.9802 30.825C17.0302 39.675 27.6802 37.7 27.6802 37.7L25.0802 42.425L31.8802 42.075C31.8802 42.075 46.8302 44.725 66.0802 29.825L64.3302 33.675L39.7802 47.275L32.2802 67.425L10.2052 45.275V38.025Z" fill="#7ED15C"/>
        <path d="M17.6427 33.5875L20.7177 31.1875L18.6177 35.4375L17.6427 33.5875Z" fill="#7ED15C"/>
        <path d="M10.6052 39.075L11.198 46.7965L32.5052 67.9L39.1007 48.0715L35.5802 49.05C35.5802 49.05 31.6052 56.85 29.5052 55.575C27.4052 54.3 14.2802 49.875 11.5802 36.6L10.6052 39.075Z" fill="#52AD3D"/>
        <path d="M13.2802 43.225L15.0052 37.325L11.8462 39.0802L13.2802 43.225Z" fill="#52AD3D"/>
        <path d="M18.1052 30.975L25.5302 28.5L35.7302 20.775L47.9552 25.875C47.9552 25.875 58.1552 24.975 60.7802 26.25C63.4052 27.525 62.5802 28.95 62.5802 28.95L66.8552 26.7L64.1552 22.575L58.6802 21.225L55.0052 19.95L48.8552 13.95L39.701 18.5935L34.0052 16.95L18.1052 30.975Z" fill="#C1F191"/>
        <path d="M49.1052 24.7L47.0875 25.513L46.2302 28L49.8235 25.7395L49.1052 24.7Z" fill="#C1F191"/>
        <path d="M63.5843 27.875L62.4053 26.775L60.5728 29.2115L63.5843 27.875Z" fill="#C1F191"/>
        <path d="M19.4302 30.675L10.0802 38.925H11.0552L35.3552 20.175L51.1052 24.3L34.8302 16.8L19.4302 30.675Z" fill="#E7E8E5"/>
        <path d="M48.0302 14.225L42.9552 16.925C42.7765 17.057 43.0052 17.4162 43.2125 17.3392C45.5477 16.477 49.6457 15.8777 52.6802 20.4C52.9915 20.864 54.4905 21.8835 55.022 22.0557L58.4757 23.175C58.9965 23.3437 60.092 23.425 60.6302 23.325C61.7322 23.12 65.2097 24.5805 64.1802 27.825C63.3802 30.35 65.485 26.563 66.2052 27.825L66.5302 26.8L66.0802 25.2L63.3552 22.175L56.0552 20.875L52.6552 17.25L48.0302 14.225Z" fill="#E7E8E5"/>
        <path d="M65.9622 28.9L64.8274 28.6105C64.7889 28.6006 64.7481 28.6045 64.7121 28.6215C64.6761 28.6385 64.6471 28.6675 64.6302 28.7035L62.2369 33.7907C62.222 33.823 62.2175 33.859 62.224 33.894C62.2304 33.9289 62.2476 33.961 62.2732 33.9857C62.2987 34.0104 62.3313 34.0266 62.3664 34.032C62.4015 34.0373 62.4374 34.0317 62.4692 34.0157L64.3742 33.0517C64.4104 33.0335 64.4389 33.003 64.4547 32.9657L66.0774 29.132C66.0869 29.1093 66.0914 29.0849 66.0906 29.0603C66.0898 29.0357 66.0838 29.0116 66.0728 28.9896C66.0619 28.9676 66.0464 28.9482 66.0273 28.9327C66.0082 28.9173 65.986 28.9061 65.9622 28.9Z" fill="#E7E8E5"/>
        <path d="M35.6552 22.3L30.6052 26.4L33.1302 27.875L38.0552 27.825C38.8082 27.8202 40.4022 27.1905 41.0302 26.775L42.3552 24.375L35.6552 22.3Z" fill="#E7E8E5"/>
        <path d="M38.51 23.2087C38.3122 23.1065 38.1155 22.9997 37.9217 22.887C37.8659 22.8685 37.8101 22.8496 37.7545 22.8302C37.4202 22.7142 37.0857 22.5862 36.7727 22.4202C36.6977 22.3812 36.6265 22.3392 36.5567 22.2952C35.8816 22.3745 35.2591 22.6987 34.8072 23.2065C34.3553 23.7143 34.1056 24.3702 34.1052 25.05C34.1053 25.2022 34.1178 25.3542 34.1425 25.5045C34.2541 25.4086 34.3718 25.3201 34.4947 25.2392C34.7005 25.103 34.9367 24.9797 35.181 24.9327C35.3187 24.9022 35.4598 24.8894 35.6007 24.8945C35.7128 24.8972 35.8239 24.915 35.9312 24.9472C36.3562 25.084 36.6335 25.4802 36.5962 25.9297C36.557 26.4047 36.2397 26.822 35.8137 27.0255C35.5982 27.125 35.3667 27.1852 35.13 27.2032C35.6416 27.6191 36.2846 27.8391 36.9438 27.824C37.603 27.8089 38.2352 27.5596 38.7273 27.1207C39.2193 26.6818 39.539 26.0821 39.6291 25.429C39.7192 24.7758 39.5738 24.1119 39.219 23.5562C38.9802 23.4445 38.744 23.3297 38.51 23.2087Z" fill="#131313"/>
        <path d="M38.51 23.2087C38.3115 23.1062 38.114 22.999 37.9197 22.8857L37.851 22.863L37.6302 23.525L39.532 25.8702L39.9525 23.891C39.4667 23.675 38.9827 23.4532 38.51 23.2087Z" fill="#131313"/>
        <path d="M34.291 25.384L35.1697 23.343L33.7302 24.025L34.133 25.513C34.1847 25.4677 34.2377 25.425 34.291 25.384Z" fill="#131313"/>
        <path d="M9.83014 41.35L9.46264 46.3087C9.46176 46.4024 9.47975 46.4953 9.51552 46.5819C9.5513 46.6685 9.60414 46.747 9.67089 46.8127L20.4301 56.425L33.3301 70.1C33.7771 68.7587 32.8379 66.9 32.8379 66.9L13.5551 47.485C12.5263 46.449 11.9095 45.0741 11.8199 43.6167C11.6841 41.4062 11.6881 38.6832 11.7811 38.575C13.0119 37.1432 29.6439 23.0765 34.0896 19.4547C34.3834 19.2154 34.7329 19.0544 35.1057 18.9868C35.4785 18.9192 35.8623 18.9471 36.2214 19.068C39.6129 20.209 49.2334 23.443 49.1061 23.375L36.6244 16.75C35.3086 16.0517 34.5191 16.4392 33.3801 17.4C31.9339 18.6187 29.4551 21.0222 27.0301 23.075C24.0956 25.5587 20.6894 28.8352 17.6301 31.2C12.9026 34.8542 9.00514 37.125 9.00514 37.125C8.97114 37.154 9.82764 41.3057 9.83014 41.35Z" fill="#131313"/>
        <path d="M34.3801 62.3L40.0051 49.0977C40.4081 48.0044 41.2004 47.0982 42.2301 46.5527L54.8689 39.2607C56.2093 38.4876 57.5931 37.7922 59.0134 37.1782L63.9386 35.05C64.2738 34.8724 64.5418 34.5903 64.7019 34.2465L66.6986 29.9592C66.9022 29.5222 67.052 29.0621 67.1449 28.589L67.1884 28.368C67.4127 27.2266 67.3323 26.0463 66.9551 24.946L66.9404 24.9027C66.9342 24.8843 66.9243 24.8673 66.9114 24.8527L65.5551 23.35C65.5469 23.3407 65.2404 23.0037 64.9121 22.6452C64.4034 22.0892 63.7531 21.3582 63.0139 21.5057C61.4421 21.8192 58.1801 21.025 56.9801 20.45C56.0959 20.025 54.7104 18.9712 54.7104 18.9712L51.4551 15.475C49.5729 13.65 48.0371 13.4292 45.7349 14.6832L44.4551 15.375L41.0301 17.775C41.0301 17.775 46.2986 15.1017 48.8551 16.025C50.9429 16.779 52.4136 18.25 53.6931 19.7102C54.4266 20.5463 55.3722 21.1689 56.4301 21.5122L59.0884 22.377C59.6094 22.5463 60.1509 22.6442 60.6981 22.6682C61.9291 22.7227 64.4671 23.1502 65.5426 25.6547C65.8051 26.2657 66.0791 27.125 64.8591 27.4765C64.8406 27.4817 64.8269 27.4975 64.8091 27.5015L64.4296 27.6097C62.8193 28.0694 61.2803 28.7497 59.8564 29.6312L50.5801 35.375L33.9881 38.5887C33.949 38.5962 33.9104 38.606 33.8724 38.618C33.3351 38.785 29.2209 40.0842 28.3801 40.925C28.2971 41.008 31.4334 39.6437 34.6551 39.05C37.6956 38.4897 42.2301 37.825 42.2301 37.825C42.2301 37.825 50.8801 36.5 51.1051 36.425C51.3301 36.35 62.3051 29.9105 62.4801 29.75C62.9121 29.3525 64.7579 28.7655 64.9551 28.65C65.6801 28.225 65.1646 29.583 64.9971 29.9982L64.0079 32.4482C63.8125 32.9326 63.4504 33.331 62.9869 33.5717L55.4301 37.875L41.6951 44.6302C41.6951 44.6302 34.1551 49.175 29.6551 48.275C26.1249 47.569 30.2106 49.5862 32.1356 50.4885C32.413 50.6185 32.7156 50.6856 33.0219 50.6852C33.3282 50.6849 33.6306 50.6169 33.9076 50.4862L37.2076 48.9307C37.5856 48.7525 37.9846 49.1337 37.8236 49.5195L34.3801 62.3Z" fill="#131313"/>
        <path d="M26.8674 39.3065C26.9674 39.1625 26.7702 38.999 26.6479 39.1255L22.8052 43.1C22.8052 43.1 21.6302 44.375 23.5052 44.3C25.2762 44.2292 29.5897 44.025 30.0629 44.002C30.0908 44.0006 30.1176 43.9912 30.1402 43.9747C30.3652 43.811 31.5602 42.9112 30.6052 43.0247C29.7709 43.1247 26.2439 43.0497 24.8407 43.085C24.7833 43.0865 24.7266 43.0725 24.6766 43.0445C24.6265 43.0165 24.5849 42.9755 24.5562 42.9259C24.5274 42.8763 24.5126 42.8198 24.5133 42.7624C24.5139 42.7051 24.53 42.6489 24.5599 42.6L26.8674 39.3065Z" fill="#131313"/>
        <path d="M44.1801 25.2095C44.1236 25.1508 44.0672 25.0931 44.0109 25.0365C43.9967 25.0223 43.9796 25.0113 43.9609 25.0042L35.7244 21.7542C35.7025 21.7456 35.6788 21.7425 35.6554 21.7452C35.632 21.748 35.6097 21.7565 35.5904 21.77C34.9954 22.1857 30.3549 25.445 29.6531 26.4262C29.5589 26.5582 31.1651 27.2215 32.2334 27.6442C32.3871 27.705 32.5039 27.4995 32.3731 27.3985L31.5164 26.7365C31.5071 26.7298 31.4987 26.722 31.4914 26.7132C31.2819 26.455 31.3111 26.1837 31.5771 25.9762L35.6709 22.869C35.6884 22.8554 35.7087 22.8461 35.7304 22.8417C35.7521 22.8374 35.7745 22.8382 35.7959 22.844C36.5111 23.0425 42.6589 24.7625 44.2279 25.6752L44.2366 25.6802C44.3776 25.7622 44.5236 25.5802 44.4134 25.4602C44.3377 25.3759 44.26 25.2923 44.1801 25.2095Z" fill="#131313"/>
        <path d="M59.1689 25.8765L61.5987 25.9765C61.6237 25.9775 61.6479 25.9851 61.6691 25.9985C61.6902 26.0119 61.7074 26.0306 61.7191 26.0528C61.7307 26.075 61.7363 26.0998 61.7353 26.1248C61.7343 26.1498 61.7268 26.1741 61.7134 26.1952L60.5607 28.025C60.5607 28.025 61.4942 26.95 59.1179 26.154C58.9612 26.102 59.0037 25.8697 59.1689 25.8765Z" fill="#131313"/>
    </g>
</svg>
